#define Empty_Seat_width 32
#define Empty_Seat_height 32
static char Empty_Seat_bits[] = {
   0x00, 0x00, 0x00, 0x00, 0x3c, 0x00, 0x00, 0x3c, 0xa6, 0xff, 0xff, 0x65,
   0x62, 0x00, 0x00, 0x46, 0x22, 0x00, 0x00, 0x44, 0x22, 0x00, 0x00, 0x44,
   0x22, 0x00, 0x00, 0x44, 0x22, 0x00, 0x00, 0x44, 0x22, 0x00, 0x00, 0x44,
   0x22, 0x00, 0x00, 0x44, 0x22, 0x00, 0x00, 0x44, 0x22, 0x00, 0x00, 0x44,
   0x22, 0x00, 0x00, 0x44, 0x22, 0x00, 0x00, 0x44, 0x22, 0x00, 0x00, 0x44,
   0x22, 0x00, 0x00, 0x44, 0x22, 0x00, 0x00, 0x44, 0x22, 0x00, 0x00, 0x44,
   0x22, 0x00, 0x00, 0x44, 0x22, 0x00, 0x00, 0x44, 0x22, 0x00, 0x00, 0x44,
   0x22, 0x00, 0x00, 0x44, 0x22, 0x00, 0x00, 0x44, 0x22, 0x00, 0x00, 0x44,
   0x22, 0x00, 0x00, 0x44, 0x22, 0x00, 0x00, 0x44, 0xf2, 0xff, 0xff, 0x4f,
   0x0a, 0x00, 0x00, 0x50, 0x0a, 0x00, 0x00, 0x50, 0x0e, 0x00, 0x00, 0x70,
   0xfc, 0xff, 0xff, 0x3f, 0x00, 0x00, 0x00, 0x00};
