#define Full_Seat_width 32
#define Full_Seat_height 32
static char Full_Seat_bits[] = {
   0x00, 0x3c, 0x3c, 0x00, 0x00, 0x42, 0x42, 0x00, 0x3c, 0x42, 0x42, 0x3c,
   0xa6, 0xc3, 0xc3, 0x65, 0x62, 0x42, 0x42, 0x46, 0x22, 0x42, 0x42, 0x44,
   0x22, 0x42, 0x42, 0x44, 0x22, 0x42, 0x42, 0x44, 0x3a, 0x42, 0x42, 0x5c,
   0x26, 0x42, 0x42, 0x64, 0x22, 0x42, 0x42, 0x44, 0x22, 0x42, 0x42, 0x44,
   0x22, 0x42, 0x42, 0x44, 0x22, 0x42, 0x42, 0x44, 0x22, 0x42, 0x42, 0x44,
   0x22, 0x42, 0x42, 0x44, 0x22, 0x42, 0x42, 0x44, 0x22, 0x42, 0x42, 0x44,
   0x22, 0x42, 0x42, 0x44, 0x22, 0x81, 0x81, 0x44, 0x22, 0x01, 0x80, 0x44,
   0x62, 0xc1, 0x83, 0x46, 0xc2, 0x21, 0x84, 0x43, 0x02, 0x30, 0x0c, 0x40,
   0x06, 0x10, 0x08, 0x60, 0x0a, 0x10, 0x08, 0x50, 0x12, 0x10, 0x08, 0x48,
   0xf2, 0x1f, 0xf8, 0x4f, 0x0a, 0x30, 0x0c, 0x50, 0x0a, 0xe0, 0x07, 0x50,
   0x0e, 0x00, 0x00, 0x70, 0xfc, 0xff, 0xff, 0x3f};
