#define noname_width 48
#define noname_height 48
static char noname_bits[] = {
 0x00,0x00,0x00,0x00,0x00,0x00,0x00,0x00,0x00,0x00,0x00,0x00,0x00,0x00,0x20,
 0x0a,0x00,0x00,0x00,0x00,0xf0,0x27,0x00,0x00,0x00,0x00,0xde,0x1f,0x00,0x00,
 0x00,0x80,0x7a,0x2b,0x00,0x00,0x00,0x80,0xde,0x6e,0x00,0x00,0x00,0x40,0xe5,
 0x53,0x01,0x00,0x00,0x90,0x0d,0x55,0x0a,0x00,0x00,0x60,0x05,0x2a,0x01,0x00,
 0x00,0xc0,0x11,0xe8,0x12,0x00,0x00,0xb0,0x46,0x52,0x0d,0x00,0x00,0xd0,0x00,
 0xe8,0x0b,0x00,0x00,0xb4,0x0b,0xe0,0x17,0x00,0x00,0x68,0x15,0xa1,0x3f,0x00,
 0x00,0x78,0x03,0xc0,0x0f,0x00,0x00,0xfc,0x03,0x80,0x1f,0x00,0x00,0xf8,0x05,
 0x40,0x7e,0x00,0x00,0xbe,0x23,0x00,0x1d,0x00,0x00,0xfc,0xa9,0x05,0x39,0x00,
 0x00,0xde,0x24,0xcb,0x3d,0x00,0x00,0xfe,0xe8,0xe1,0x1a,0x00,0x00,0x7c,0x01,
 0x00,0x79,0x00,0x00,0x7c,0x01,0x02,0x18,0x00,0x00,0xfc,0x02,0x24,0x19,0x00,
 0x00,0xc8,0x24,0x01,0x00,0x00,0x00,0x78,0x01,0x82,0x04,0x00,0x00,0x70,0x02,
 0x21,0x00,0x00,0x00,0x60,0x28,0x24,0x01,0x00,0x00,0x60,0x02,0x0d,0x00,0x00,
 0x00,0x40,0x41,0x21,0x02,0x00,0x00,0x70,0x08,0x52,0x00,0x00,0x00,0xf0,0x24,
 0x04,0x00,0x00,0x00,0x38,0x12,0xc1,0x00,0x00,0x00,0x58,0x09,0x08,0x00,0x00,
 0x00,0x58,0x2a,0x40,0x01,0x00,0x00,0x5e,0x60,0x51,0x02,0x00,0x00,0x9e,0x94,
 0x4a,0x0d,0x00,0x00,0xaf,0xc1,0x56,0x7c,0x00,0x80,0x1f,0x1b,0xc4,0xda,0x01,
 0x80,0x4f,0x43,0x43,0x7c,0x01,0xc0,0xdf,0x56,0x81,0xfa,0x01,0x80,0xff,0x0a,
 0x50,0xfc,0x01,0x80,0xdf,0x09,0x44,0xf1,0x03,0x80,0xdf,0x44,0x00,0xfe,0x01,
 0x80,0xad,0x03,0x92,0x59,0x01,0x80,0x82,0x00,0x00,0xa8,0x00,0x00,0x00,0x00,
 0x00,0x00,0x00};
